<svg width="50" height="50" viewBox="0 0 50 50" fill="none" xmlns="http://www.w3.org/2000/svg">
<path id="Vector" d="M49.2457 7.97243L42.0276 0.754349C41.0218 -0.251449 39.377 -0.251449 38.3712 0.754349L25.5798 13.5457C25.2603 13.8652 24.7397 13.8652 24.4202 13.5457L11.6288 0.754349C10.623 -0.251449 8.97823 -0.251449 7.97243 0.754349L0.754349 7.97243C-0.251449 8.97823 -0.251449 10.623 0.754349 11.6288L13.5457 24.4202C13.8652 24.7397 13.8652 25.2603 13.5457 25.5798L0.754349 38.3712C-0.251449 39.377 -0.251449 41.0218 0.754349 42.0276L7.97243 49.2457C8.97823 50.2514 10.623 50.2514 11.6288 49.2457L24.4202 36.4543C24.7397 36.1348 25.2603 36.1348 25.5798 36.4543L38.3712 49.2457C39.377 50.2514 41.0218 50.2514 42.0276 49.2457L49.2457 42.0276C50.2514 41.0218 50.2514 39.377 49.2457 38.3712L36.4543 25.5798C36.1348 25.2603 36.1348 24.7397 36.4543 24.4202L49.2457 11.6288C50.2514 10.623 50.2514 8.97823 49.2457 7.97243Z" fill="#DF70C0"/>
</svg>
